# Blender v2.77 (sub 0) OBJ File: 'hur_smallmissile.blend'
# www.blender.org
mtllib hur_smallmissile.mtl
o MULT[Hull]_LOD[0]
v -0.010000 -0.107910 -0.205583
v 0.077910 0.000000 0.541733
v 0.055091 0.055091 0.541733
v 0.010000 -0.067910 0.224417
v 0.010000 -0.107910 0.204417
v 0.055091 -0.055091 0.541733
v 0.070119 0.000000 0.588443
v 0.049582 0.049582 0.588443
v 0.010000 -0.107910 0.097476
v 0.067910 -0.010000 0.224417
v 0.049582 -0.049581 0.588443
v 0.054537 0.000000 0.635154
v 0.038564 0.038564 0.635154
v 0.010000 -0.067910 0.077476
v 0.107910 -0.010000 0.097476
v 0.038564 -0.038564 0.635154
v 0.067910 -0.010000 0.077476
v 0.077910 0.000000 -0.215583
v 0.055091 0.055091 -0.215583
v 0.010000 -0.067910 0.014417
v 0.010000 -0.107910 -0.005583
v 0.010000 -0.067910 -0.205583
v 0.010000 -0.107910 -0.205583
v 0.055091 -0.055091 -0.215583
v 0.107910 0.010000 -0.205583
v 0.067910 0.010000 -0.205583
v 0.107910 0.010000 -0.005583
v 0.067910 0.010000 0.014417
v 0.067910 0.010000 0.077476
v 0.107910 0.010000 0.097476
v 0.107910 0.010000 0.204417
v 0.067910 0.010000 0.224417
v 0.107910 -0.010000 -0.205583
v 0.067910 -0.010000 -0.205583
v 0.107910 -0.010000 -0.005583
v 0.067910 -0.010000 0.014417
v -0.010000 -0.067910 0.077476
v -0.010000 -0.107910 0.097476
v 0.107910 -0.010000 0.204417
v -0.010000 -0.067910 0.224417
v -0.000000 -0.077910 -0.215583
v -0.077910 0.000000 0.541733
v -0.055091 0.055091 0.541733
v -0.000000 0.077910 0.541733
v -0.000000 -0.077910 0.541733
v -0.055091 -0.055091 0.541733
v -0.070119 0.000000 0.588443
v -0.049582 0.049582 0.588443
v -0.000000 0.070119 0.588443
v -0.000000 -0.070119 0.588443
v -0.049582 -0.049581 0.588443
v -0.054537 0.000000 0.635154
v -0.038564 0.038564 0.635154
v -0.000000 0.054537 0.635154
v -0.000000 -0.054537 0.635154
v -0.038564 -0.038564 0.635154
v -0.000000 0.000000 0.678713
v -0.077910 0.000000 -0.215583
v -0.055091 0.055091 -0.215583
v -0.000000 0.077910 -0.215583
v -0.055091 -0.055091 -0.215583
v -0.010000 -0.067910 -0.205583
v -0.010000 -0.107910 -0.005583
v -0.010000 -0.067910 0.014417
v -0.010000 -0.107910 0.204417
v -0.107910 0.010000 -0.205583
v -0.067910 -0.010000 0.224417
v -0.107910 -0.010000 0.204417
v -0.107910 -0.010000 0.097476
v -0.067910 -0.010000 0.077476
v -0.067910 -0.010000 0.014417
v -0.107910 -0.010000 -0.005583
v -0.067910 -0.010000 -0.205583
v -0.107910 -0.010000 -0.205583
v -0.067910 0.010000 0.077476
v -0.107910 0.010000 0.097476
v -0.067910 0.010000 0.224417
v -0.067910 0.010000 -0.205583
v -0.107910 0.010000 -0.005583
v -0.067910 0.010000 0.014417
v -0.107910 0.010000 0.204417
v 0.010000 0.107910 -0.205583
v -0.010000 0.067910 0.224417
v -0.010000 0.107910 0.204417
v -0.010000 0.107910 0.097476
v -0.010000 0.067910 0.077476
v -0.010000 0.067910 0.014417
v -0.010000 0.107910 -0.005583
v -0.010000 0.067910 -0.205583
v -0.010000 0.107910 -0.205583
v 0.010000 0.067910 0.077476
v 0.010000 0.107910 0.097476
v 0.010000 0.067910 0.224417
v 0.010000 0.067910 -0.205583
v 0.010000 0.107910 -0.005583
v 0.010000 0.067910 0.014417
v 0.010000 0.107910 0.204417
vt 0.084725 0.300873
vt 0.144367 0.399691
vt 0.169071 0.638259
vt 0.144367 0.876827
vt 0.084725 0.975644
vt 0.025083 0.876827
vt 0.000379 0.638259
vt 0.025083 0.399691
vt 0.986754 0.044736
vt 0.429094 0.267176
vt 0.429094 0.044736
vt 0.986754 0.732825
vt 0.429094 0.500000
vt 0.986754 0.500000
vt 0.986754 0.955264
vt 0.429094 0.732825
vt 0.394698 0.290459
vt 0.360301 0.500000
vt 0.360301 0.337022
vt 0.394698 0.709541
vt 0.394698 0.500000
vt 0.394698 0.909738
vt 0.394698 0.090262
vt 0.360301 0.181317
vt 0.360301 0.662978
vt 0.328227 0.500000
vt 0.360301 0.818683
vt 0.986754 0.267176
vt 0.227441 0.253687
vt 0.050100 0.111814
vt 0.227441 0.111814
vt 0.288619 0.371751
vt 0.253151 0.821985
vt 0.253151 0.300814
vt 0.288619 0.213132
vt 0.306353 0.371751
vt 0.050100 0.040877
vt 0.010446 0.111814
vt 0.288619 0.909667
vt 0.306353 0.751049
vt 0.306353 0.909667
vt 0.288619 0.751049
vt 0.227441 0.040877
vt 0.262909 0.111814
vt 0.429094 0.267176
vt 0.986754 0.267176
vt 0.429094 0.500000
vt 0.986754 0.732825
vt 0.986754 0.500000
vt 0.429094 0.732825
vt 0.394698 0.290459
vt 0.360301 0.500000
vt 0.394698 0.500000
vt 0.394698 0.709541
vt 0.429094 0.955264
vt 0.360301 0.662978
vt 0.360301 0.337022
vt 0.050100 0.111814
vt 0.227441 0.253687
vt 0.227441 0.111814
vt 0.288619 0.371751
vt 0.253151 0.821985
vt 0.288619 0.751049
vt 0.227441 0.253687
vt 0.050100 0.111814
vt 0.227441 0.111814
vt 0.288619 0.751049
vt 0.253151 0.300814
vt 0.288619 0.371751
vt 0.288619 0.213132
vt 0.306353 0.371751
vt 0.050100 0.040877
vt 0.010446 0.111814
vt 0.306353 0.909667
vt 0.288619 0.909667
vt 0.306353 0.751049
vt 0.227441 0.040877
vt 0.262909 0.111814
vt 0.050100 0.111814
vt 0.227441 0.253687
vt 0.227441 0.111814
vt 0.253151 0.300814
vt 0.288619 0.751049
vt 0.288619 0.371751
vt 0.227441 0.253687
vt 0.050100 0.111814
vt 0.227441 0.111814
vt 0.288619 0.371751
vt 0.253151 0.821985
vt 0.253151 0.300814
vt 0.288619 0.213132
vt 0.306353 0.371751
vt 0.050100 0.040877
vt 0.010446 0.111814
vt 0.288619 0.909667
vt 0.306353 0.751049
vt 0.306353 0.909667
vt 0.288619 0.751049
vt 0.227441 0.040877
vt 0.262909 0.111814
vt 0.050100 0.111814
vt 0.227441 0.253687
vt 0.227441 0.111814
vt 0.253151 0.300814
vt 0.288619 0.751049
vt 0.288619 0.371751
vt 0.227441 0.253687
vt 0.050100 0.111814
vt 0.227441 0.111814
vt 0.288619 0.371751
vt 0.253151 0.821985
vt 0.253151 0.300814
vt 0.288619 0.213132
vt 0.306353 0.371751
vt 0.050100 0.040877
vt 0.010446 0.111814
vt 0.288619 0.909667
vt 0.306353 0.751049
vt 0.306353 0.909667
vt 0.288619 0.751049
vt 0.227441 0.040877
vt 0.262909 0.111814
vt 0.050100 0.111814
vt 0.227441 0.253687
vt 0.227441 0.111814
vt 0.288619 0.371751
vt 0.253151 0.821985
vt 0.288619 0.751049
vt 0.032366 0.253687
vt 0.306353 0.213132
vt 0.010446 0.040877
vt 0.262909 0.040877
vt 0.032366 0.253687
vt 0.253151 0.300814
vt 0.032366 0.253687
vt 0.253151 0.821985
vt 0.306353 0.213132
vt 0.010446 0.040877
vt 0.262909 0.040877
vt 0.032366 0.253687
vt 0.253151 0.821985
vt 0.032366 0.253687
vt 0.306353 0.213132
vt 0.010446 0.040877
vt 0.262909 0.040877
vt 0.032366 0.253687
vt 0.253151 0.821985
vt 0.032366 0.253687
vt 0.306353 0.213132
vt 0.010446 0.040877
vt 0.262909 0.040877
vt 0.032366 0.253687
vt 0.253151 0.300814
vn 0.000000 0.000000 -1.000000
vn -0.000000 -1.000000 -0.000000
vn 0.704800 -0.704800 0.080900
vn 0.000000 -0.996700 0.080900
vn 0.707100 0.707100 0.000000
vn 0.996700 0.000000 0.080900
vn 1.000000 -0.000000 0.000000
vn -0.000000 1.000000 -0.000000
vn 0.704800 0.704800 0.080900
vn 0.687000 -0.687000 0.236900
vn 0.840400 0.000000 0.541900
vn 0.594300 -0.594300 0.541900
vn 0.687000 0.687000 0.236900
vn 0.971500 0.000000 0.236900
vn 0.000000 0.971500 0.236900
vn 0.000000 -0.971500 0.236900
vn 0.000000 -0.840400 0.541900
vn 0.594300 0.594300 0.541900
vn 0.000000 0.000000 1.000000
vn 0.000000 0.840400 0.541900
vn 0.707100 -0.707100 0.000000
vn 0.447200 0.000000 0.894400
vn 0.447200 0.000000 -0.894400
vn -0.704800 -0.704800 0.080900
vn -0.707100 -0.707100 -0.000000
vn -0.996700 0.000000 0.080900
vn -0.707100 0.707100 -0.000000
vn -1.000000 -0.000000 -0.000000
vn -0.704800 0.704800 0.080900
vn -0.687000 -0.687000 0.236900
vn -0.840400 0.000000 0.541900
vn -0.971500 0.000000 0.236900
vn -0.687000 0.687000 0.236900
vn 0.000000 0.996700 0.080900
vn -0.594300 0.594300 0.541900
vn -0.594300 -0.594300 0.541900
vn 0.000000 -0.447200 0.894400
vn 0.000000 -0.447200 -0.894400
vn -0.447200 -0.000000 0.894400
vn -0.447200 0.000000 -0.894400
vn 0.000000 0.447200 0.894400
vn -0.000000 0.447200 -0.894400
usemtl MAT[Main]_SHD[ship]
s 1
f 41/1/1 61/2/1 58/3/1
f 58/3/1 59/4/1 60/5/1
f 60/5/1 19/6/1 18/7/1
f 24/8/1 41/1/1 18/7/1
f 41/9/2 6/10/3 45/11/4
f 19/12/5 2/13/6 18/14/7
f 60/15/8 3/16/9 19/12/5
f 18/7/1 58/3/1 60/5/1
f 11/17/10 12/18/11 16/19/12
f 2/13/6 8/20/13 7/21/14
f 3/16/9 49/22/15 8/20/13
f 45/11/4 11/17/10 50/23/16
f 2/13/6 11/17/10 6/10/3
f 50/23/16 16/19/12 55/24/17
f 49/22/15 13/25/18 8/20/13
f 8/20/13 12/18/11 7/21/14
f 12/18/11 13/25/18 57/26/19
f 13/25/18 54/27/20 57/26/19
f 55/24/17 16/19/12 57/26/19
f 16/19/12 12/18/11 57/26/19
f 18/14/7 6/10/3 24/28/21
f 26/29/8 27/30/8 25/31/8
f 31/32/8 29/33/8 32/34/8
f 32/35/22 39/36/22 31/32/22
f 35/37/7 25/31/7 27/30/7
f 28/38/22 35/37/22 27/30/22
f 29/39/23 15/40/23 17/41/23
f 31/32/7 15/40/7 30/42/7
f 33/43/1 26/44/1 25/31/1
f 41/9/2 46/45/24 61/46/25
f 42/47/26 59/48/27 58/49/28
f 43/50/29 60/15/8 59/48/27
f 51/51/30 52/52/31 47/53/32
f 42/47/26 48/54/33 43/50/29
f 43/50/29 49/22/15 44/55/34
f 50/23/16 46/45/24 45/11/4
f 51/51/30 42/47/26 46/45/24
f 55/24/17 51/51/30 50/23/16
f 53/56/35 49/22/15 48/54/33
f 52/52/31 48/54/33 47/53/32
f 52/52/31 57/26/19 53/56/35
f 53/56/35 57/26/19 54/27/20
f 55/24/17 57/26/19 56/57/36
f 56/57/36 57/26/19 52/52/31
f 46/45/24 58/49/28 61/46/25
f 35/58/2 34/59/2 33/60/2
f 39/61/2 17/62/2 15/63/2
f 22/64/7 21/65/7 23/66/7
f 9/67/7 4/68/7 5/69/7
f 4/70/37 65/71/37 5/69/37
f 63/72/2 23/66/2 21/65/2
f 20/73/37 63/72/37 21/65/37
f 9/67/38 37/74/38 14/75/38
f 9/67/2 65/71/2 38/76/2
f 1/77/1 22/78/1 23/66/1
f 63/79/28 62/80/28 1/81/28
f 40/82/28 38/83/28 65/84/28
f 73/85/2 72/86/2 74/87/2
f 68/88/2 70/89/2 67/90/2
f 67/91/39 81/92/39 68/88/39
f 79/93/28 74/87/28 72/86/28
f 71/94/39 79/93/39 72/86/39
f 70/95/40 76/96/40 75/97/40
f 68/88/28 76/96/28 69/98/28
f 66/99/1 73/100/1 74/87/1
f 79/101/8 78/102/8 66/103/8
f 77/104/8 76/105/8 81/106/8
f 89/107/28 88/108/28 90/109/28
f 84/110/28 86/111/28 83/112/28
f 83/113/41 97/114/41 84/110/41
f 95/115/8 90/109/8 88/108/8
f 87/116/41 95/115/41 88/108/41
f 86/117/42 92/118/42 91/119/42
f 85/120/8 97/114/8 92/118/8
f 82/121/1 89/122/1 90/109/1
f 95/123/7 94/124/7 82/125/7
f 97/126/7 91/127/7 92/128/7
f 41/9/2 24/28/21 6/10/3
f 19/12/5 3/16/9 2/13/6
f 60/15/8 44/55/34 3/16/9
f 18/7/1 41/1/1 58/3/1
f 11/17/10 7/21/14 12/18/11
f 2/13/6 3/16/9 8/20/13
f 3/16/9 44/55/34 49/22/15
f 45/11/4 6/10/3 11/17/10
f 2/13/6 7/21/14 11/17/10
f 50/23/16 11/17/10 16/19/12
f 49/22/15 54/27/20 13/25/18
f 8/20/13 13/25/18 12/18/11
f 18/14/7 2/13/6 6/10/3
f 26/29/8 28/129/8 27/30/8
f 31/32/8 30/42/8 29/33/8
f 32/35/22 10/130/22 39/36/22
f 35/37/7 33/43/7 25/31/7
f 28/38/22 36/131/22 35/37/22
f 29/39/23 30/42/23 15/40/23
f 31/32/7 39/36/7 15/40/7
f 33/43/1 34/132/1 26/44/1
f 41/9/2 45/11/4 46/45/24
f 42/47/26 43/50/29 59/48/27
f 43/50/29 44/55/34 60/15/8
f 51/51/30 56/57/36 52/52/31
f 42/47/26 47/53/32 48/54/33
f 43/50/29 48/54/33 49/22/15
f 50/23/16 51/51/30 46/45/24
f 51/51/30 47/53/32 42/47/26
f 55/24/17 56/57/36 51/51/30
f 53/56/35 54/27/20 49/22/15
f 52/52/31 53/56/35 48/54/33
f 46/45/24 42/47/26 58/49/28
f 35/58/2 36/133/2 34/59/2
f 39/61/2 10/134/2 17/62/2
f 22/64/7 20/135/7 21/65/7
f 9/67/7 14/136/7 4/68/7
f 4/70/37 40/137/37 65/71/37
f 63/72/2 1/77/2 23/66/2
f 20/73/37 64/138/37 63/72/37
f 9/67/38 38/76/38 37/74/38
f 9/67/2 5/69/2 65/71/2
f 1/77/1 62/139/1 22/78/1
f 63/79/28 64/140/28 62/80/28
f 40/82/28 37/141/28 38/83/28
f 73/85/2 71/142/2 72/86/2
f 68/88/2 69/98/2 70/89/2
f 67/91/39 77/143/39 81/92/39
f 79/93/28 66/99/28 74/87/28
f 71/94/39 80/144/39 79/93/39
f 70/95/40 69/98/40 76/96/40
f 68/88/28 81/92/28 76/96/28
f 66/99/1 78/145/1 73/100/1
f 79/101/8 80/146/8 78/102/8
f 77/104/8 75/147/8 76/105/8
f 89/107/28 87/148/28 88/108/28
f 84/110/28 85/120/28 86/111/28
f 83/113/41 93/149/41 97/114/41
f 95/115/8 82/121/8 90/109/8
f 87/116/41 96/150/41 95/115/41
f 86/117/42 85/120/42 92/118/42
f 85/120/8 84/110/8 97/114/8
f 82/121/1 94/151/1 89/122/1
f 95/123/7 96/152/7 94/124/7
f 97/126/7 93/153/7 91/127/7
